<?xml version="1.0" encoding="utf-8"?>
<!-- Generator: Adobe Illustrator 26.1.0, SVG Export Plug-In . SVG Version: 6.00 Build 0)  -->
<svg version="1.1" id="Layer_1" xmlns="http://www.w3.org/2000/svg" xmlns:xlink="http://www.w3.org/1999/xlink" x="0px" y="0px"
	 viewBox="0 0 1366 768" style="enable-background:new 0 0 1366 768;" xml:space="preserve">
<style type="text/css">
	.st0{display:none;}
	.st1{fill:#1A1A1A;}
	.st2{fill:#0071BC;}
	.st3{fill:#29ABE2;}
	.st4{fill:url(#SVGID_1_);}
	.st5{fill:url(#SVGID_00000176729902059051097620000011129385398057755787_);}
	.st6{fill:url(#SVGID_00000090996627105368480140000007240516085323522467_);}
	.st7{fill:url(#SVGID_00000057138005013174312180000009891615554522014898_);}
	.st8{fill:url(#SVGID_00000097483606179139893520000010186170676924633506_);}
	.st9{fill:url(#SVGID_00000154407335925214192590000014390769096211983778_);}
	.st10{fill:url(#SVGID_00000183229065544087349740000010107781674423200403_);}
	.st11{fill:url(#SVGID_00000171679805812044044930000011314336752674400406_);}
	.st12{fill:url(#SVGID_00000057130400063307499700000007648414189655616640_);}
	.st13{fill:url(#SVGID_00000098925343954274441640000014390752493651843507_);}
	.st14{fill:url(#SVGID_00000021119133345761910740000015055438373857455026_);}
	.st15{fill:url(#SVGID_00000065033196180575602920000011812357363080408498_);}
	.st16{fill:url(#SVGID_00000068665950628016366000000015187278498717520023_);}
	.st17{fill:url(#SVGID_00000150096133829918304700000011413557760839936697_);}
	.st18{fill:none;}
	.st19{fill:url(#SVGID_00000112611269920339924500000012423110221350249139_);}
	.st20{fill:url(#SVGID_00000145020422475760405340000009425303774184831131_);}
	.st21{fill:url(#SVGID_00000182502369614926386520000007771309529794165695_);}
	.st22{fill:url(#SVGID_00000024682556769971423930000009679642660899648150_);}
	.st23{fill:url(#SVGID_00000165204259730432550530000008925961682968734141_);}
	.st24{fill:url(#SVGID_00000119091663633199674660000006126239706033005481_);}
	.st25{fill:#FF5D0A;}
	.st26{fill:#FFB235;}
</style>
<g id="Layer_2_00000165206129594901494730000002562771986905948811_" class="st0">
</g>
<path class="st0" d="M789.9,445.6"/>
<g>
	<g>
		<g>
			<g>
				<path class="st1" d="M754,243.8v1v156.9c0,1-0.4,1.8-1,2.7l-44.7,53.1c-1,1-1.2,2.7-0.8,4.1c1.6,4.3,6.8,13.1,23.4,13.9
					c1.6,0,3.1-0.6,3.9-2.1l41.2-66.6c0.4-0.6,0.6-1.4,0.6-2.3V247.9c0-2.3-1.8-4.1-4.1-4.1H754L754,243.8z"/>
				<path class="st1" d="M1016.5,243.8v1v156.9c0,1,0.4,2.1,1,2.7l44.7,53.1c1,1,1.2,2.7,0.8,4.1c-1.6,4.3-6.8,13.1-23.4,13.9
					c-1.6,0-3.1-0.6-3.9-2.1l-41.2-66.6c-0.4-0.6-0.6-1.4-0.6-2.3V247.9c0-2.3,1.8-4.1,4.1-4.1H1016.5L1016.5,243.8z"/>
				<polygon class="st1" points="1036.5,475.6 1039.6,475.6 1039,471.5 1034.9,473.5 1034.9,473.5 1034.9,473.5 				"/>
				<polygon class="st1" points="733.4,475.6 730.2,475.6 737.5,471.5 				"/>
				<rect x="993.9" y="242" class="st1" width="8.2" height="6.2"/>
				<polygon class="st1" points="776.5,243.8 776.5,250.2 767.7,250.2 768.3,239.7 776.5,239.7 				"/>
				<polygon class="st1" points="1041.1,473.5 1039.4,474.3 1037.8,475.2 1037.8,475.2 1037.2,475.6 963.1,475.6 946.3,451.8 
					941.2,444.6 830,445.6 809.3,475.6 733.4,475.6 734.9,473.5 735.3,472.7 735.3,472.7 756.2,438.9 758.3,435.6 1012.3,435.6 
					1014.8,438.9 				"/>
				<polygon class="st1" points="834.8,438.9 849.1,418.3 922.1,418.1 936.5,438.7 1017.5,438.9 993.9,391.5 772.4,391.5 
					751.7,438.9 				"/>
				<path class="st1" d="M938.5,243.8h-69.7h-97.4H754c0,0,0-10.3,7.8-14.4h107.7L938.5,243.8z"/>
				<path class="st1" d="M831.9,243.8h69.7h97.6h17.4c0,0,0-10-7.8-13.9H901.2L831.9,243.8z"/>
				<polygon class="st1" points="1008.7,229.9 993.9,243.8 776.5,243.8 762,229.5 				"/>
			</g>
			<polyline class="st1" points="848.7,418.8 924.2,418.8 920.1,412 848.3,412 			"/>
			<polyline class="st1" points="829.8,446 942.6,446 942.6,440.7 827.8,440.7 826.1,443.4 			"/>
			<polygon class="st2" points="969.3,371 885.2,334.1 885.2,254.1 			"/>
			<polygon class="st3" points="801.1,371 885.2,334.1 885.2,254.1 			"/>
		</g>
		<g>
			<path d="M50.3,333.9v142.9h33V363.4h117.1v-29.5H50.3L50.3,333.9z M50.3,227.2v29.5h168.4v-29.5H50.3z"/>
			<path d="M425.4,227.2v144c0,31.4-5.1,52.5-15.6,63.6c-10.3,11.1-27.7,16.4-51.9,16.4c-14.2,0-26.2-2.7-36.1-8.4
				C312,437,305,429.2,301.2,419c-4.1-10.3-5.9-26.2-5.9-48V227h-33v144.2c0,26.5,3.1,47.4,9.6,62.5c6.4,15.2,17,26.9,31.8,35.1
				c14.8,8.2,34,12.1,57.4,12.1c24,0,43.5-4.5,58.2-13.9c14.8-9.2,25-21.3,30.8-36.1c5.7-14.8,8.6-34.7,8.6-59.7V227h-33.2V227.2z"
				/>
			<path d="M688.3,366.7c-8.2-10.7-19.7-18.3-34.9-22.6c11.7-5.7,20.5-13.3,26.2-22.8c5.7-9.4,8.6-19.5,8.6-30.1
				c0-11.5-3.3-22.4-9.8-33c-6.6-10.7-15.6-18.3-27.1-23.4c-11.5-5.1-26.9-7.6-45.9-7.6h-93.7v29.5h82.9c18,0,30.6,1.2,37.9,3.5
				s13.1,6.6,17,12.9c3.9,6.4,5.9,13.5,5.9,21.9c0,8.8-2.1,16-6.4,21.7c-4.3,5.7-10.7,9.8-19.1,12.5c-6.4,1.8-16.8,2.9-31.6,2.9
				h-53.9h-33v29.5h90.6c16,0,28.1,1.4,36.5,4.1c8.4,2.9,15,7.6,19.9,14.6c4.7,6.8,7.2,15,7.2,24.2c0,8-1.6,15-4.9,20.9
				c-3.3,6.2-7.6,10.7-12.7,13.9s-11.5,5.5-19.1,6.8c-4.3,0.8-11.9,1.2-22.6,1.2h-95.2V477h95.2c16,0,29.3-1.4,40.2-4.1
				c10.9-2.7,20.1-7,27.3-12.3c7.2-5.5,13.3-13.1,18.3-23.2c4.9-10,7.4-20.9,7.4-32.6C700.4,389.8,696.3,377.3,688.3,366.7z"/>
			<path d="M1272.4,408.9c-8.6-13.3-17.8-24.4-27.5-33.2c-4.5-4.1-11.3-8.2-19.9-12.5c24-3.3,41.6-11.1,53.1-23.2
				s17.2-27.1,17.2-44.7c0-13.7-3.5-26.2-10.5-37.7c-7-11.3-16.2-19.3-27.7-23.8s-28.5-6.8-50.7-6.8h-110.7v27.5h112
				c18.5,0,32,3.9,40.6,11.5c8.6,7.6,12.9,17.2,12.9,29.1c0,8-2.3,15.6-6.6,22.4c-4.5,6.8-10.9,11.9-19.5,15s-20.3,4.7-35.5,4.7
				h-104v139.5h33V365.9h38.3c8.6,0,14.6,0.4,18.5,1.2c5.1,1.2,10,3.5,15,6.6c4.9,3.1,10.5,8.8,16.8,16.6c6.2,8,14.2,19.5,23.8,34.5
				l33,51.9h41.4L1272.4,408.9z"/>
		</g>
		<path d="M308.1,723.5v0.2V723.5z"/>
	</g>
	<g>
		<g>
			<g>
				
					<linearGradient id="SVGID_1_" gradientUnits="userSpaceOnUse" x1="50.336" y1="408.3018" x2="1315.7458" y2="408.3018" gradientTransform="matrix(1 0 0 -1 0 768)">
					<stop  offset="0" style="stop-color:#FFFFFF"/>
					<stop  offset="1" style="stop-color:#AE94FF"/>
				</linearGradient>
				<path class="st4" d="M754,243.8v1v156.9c0,1-0.4,1.8-1,2.7l-44.7,53.1c-1,1-1.2,2.7-0.8,4.1c1.6,4.3,6.8,13.1,23.4,13.9
					c1.6,0,3.1-0.6,3.9-2.1l41.2-66.6c0.4-0.6,0.6-1.4,0.6-2.3V247.9c0-2.3-1.8-4.1-4.1-4.1H754L754,243.8z"/>
				
					<linearGradient id="SVGID_00000079449271274404055380000006723921116304516273_" gradientUnits="userSpaceOnUse" x1="50.336" y1="408.3018" x2="1315.7458" y2="408.3018" gradientTransform="matrix(1 0 0 -1 0 768)">
					<stop  offset="0" style="stop-color:#FFFFFF"/>
					<stop  offset="1" style="stop-color:#AE94FF"/>
				</linearGradient>
				<path style="fill:url(#SVGID_00000079449271274404055380000006723921116304516273_);" d="M1016.5,243.8v1v156.9
					c0,1,0.4,2.1,1,2.7l44.7,53.1c1,1,1.2,2.7,0.8,4.1c-1.6,4.3-6.8,13.1-23.4,13.9c-1.6,0-3.1-0.6-3.9-2.1l-41.2-66.6
					c-0.4-0.6-0.6-1.4-0.6-2.3V247.9c0-2.3,1.8-4.1,4.1-4.1H1016.5L1016.5,243.8z"/>
				
					<linearGradient id="SVGID_00000166657698088449358780000016026202289536111236_" gradientUnits="userSpaceOnUse" x1="50.336" y1="294.4857" x2="1315.7458" y2="294.4857" gradientTransform="matrix(1 0 0 -1 0 768)">
					<stop  offset="0" style="stop-color:#FFFFFF"/>
					<stop  offset="1" style="stop-color:#AE94FF"/>
				</linearGradient>
				<polygon style="fill:url(#SVGID_00000166657698088449358780000016026202289536111236_);" points="1036.5,475.6 1039.6,475.6 
					1039,471.5 1034.9,473.5 1034.9,473.5 1034.9,473.5 				"/>
				
					<linearGradient id="SVGID_00000161601559415308039280000017182790103433120934_" gradientUnits="userSpaceOnUse" x1="50.336" y1="294.4857" x2="1315.7458" y2="294.4857" gradientTransform="matrix(1 0 0 -1 0 768)">
					<stop  offset="0" style="stop-color:#FFFFFF"/>
					<stop  offset="1" style="stop-color:#AE94FF"/>
				</linearGradient>
				<polygon style="fill:url(#SVGID_00000161601559415308039280000017182790103433120934_);" points="733.4,475.6 730.2,475.6 
					737.5,471.5 				"/>
				
					<linearGradient id="SVGID_00000088104765243490578640000006138689946825443477_" gradientUnits="userSpaceOnUse" x1="50.336" y1="522.9383" x2="1315.7458" y2="522.9383" gradientTransform="matrix(1 0 0 -1 0 768)">
					<stop  offset="0" style="stop-color:#FFFFFF"/>
					<stop  offset="1" style="stop-color:#AE94FF"/>
				</linearGradient>
				
					<rect x="993.9" y="242" style="fill:url(#SVGID_00000088104765243490578640000006138689946825443477_);" width="8.2" height="6.2"/>
				
					<linearGradient id="SVGID_00000134969162355951398840000009736852757961885340_" gradientUnits="userSpaceOnUse" x1="50.336" y1="523.0408" x2="1315.7458" y2="523.0408" gradientTransform="matrix(1 0 0 -1 0 768)">
					<stop  offset="0" style="stop-color:#FFFFFF"/>
					<stop  offset="1" style="stop-color:#AE94FF"/>
				</linearGradient>
				<polygon style="fill:url(#SVGID_00000134969162355951398840000009736852757961885340_);" points="776.5,243.8 776.5,250.2 
					767.7,250.2 768.3,239.7 776.5,239.7 				"/>
				
					<linearGradient id="SVGID_00000170989828547570143440000005224305411315127182_" gradientUnits="userSpaceOnUse" x1="50.336" y1="312.4297" x2="1315.7458" y2="312.4297" gradientTransform="matrix(1 0 0 -1 0 768)">
					<stop  offset="0" style="stop-color:#FFFFFF"/>
					<stop  offset="1" style="stop-color:#AE94FF"/>
				</linearGradient>
				<polygon style="fill:url(#SVGID_00000170989828547570143440000005224305411315127182_);" points="1041.1,473.5 1039.4,474.3 
					1037.8,475.2 1037.8,475.2 1037.2,475.6 963.1,475.6 946.3,451.8 941.2,444.6 830,445.6 809.3,475.6 733.4,475.6 734.9,473.5 
					735.3,472.7 735.3,472.7 756.2,438.9 758.3,435.6 1012.3,435.6 1014.8,438.9 				"/>
				
					<linearGradient id="SVGID_00000126286839924594964840000018010916997655021494_" gradientUnits="userSpaceOnUse" x1="50.336" y1="352.8293" x2="1315.7458" y2="352.8293" gradientTransform="matrix(1 0 0 -1 0 768)">
					<stop  offset="0" style="stop-color:#FFFFFF"/>
					<stop  offset="1" style="stop-color:#AE94FF"/>
				</linearGradient>
				<polygon style="fill:url(#SVGID_00000126286839924594964840000018010916997655021494_);" points="834.8,438.9 849.1,418.3 
					922.1,418.1 936.5,438.7 1017.5,438.9 993.9,391.5 772.4,391.5 751.7,438.9 				"/>
				
					<linearGradient id="SVGID_00000065035420080901337570000005436516008805773751_" gradientUnits="userSpaceOnUse" x1="50.336" y1="531.3463" x2="1315.7458" y2="531.3463" gradientTransform="matrix(1 0 0 -1 0 768)">
					<stop  offset="0" style="stop-color:#FFFFFF"/>
					<stop  offset="1" style="stop-color:#AE94FF"/>
				</linearGradient>
				<path style="fill:url(#SVGID_00000065035420080901337570000005436516008805773751_);" d="M938.5,243.8h-69.7h-97.4H754
					c0,0,0-10.3,7.8-14.4h107.7L938.5,243.8z"/>
				
					<linearGradient id="SVGID_00000079485429024751663820000000851006883666966451_" gradientUnits="userSpaceOnUse" x1="50.336" y1="531.1412" x2="1315.7458" y2="531.1412" gradientTransform="matrix(1 0 0 -1 0 768)">
					<stop  offset="0" style="stop-color:#FFFFFF"/>
					<stop  offset="1" style="stop-color:#AE94FF"/>
				</linearGradient>
				<path style="fill:url(#SVGID_00000079485429024751663820000000851006883666966451_);" d="M831.9,243.8h69.7h97.6h17.4
					c0,0,0-10-7.8-13.9H901.2L831.9,243.8z"/>
				
					<linearGradient id="SVGID_00000065765281921818381640000017667986178444638628_" gradientUnits="userSpaceOnUse" x1="50.336" y1="531.3463" x2="1315.7458" y2="531.3463" gradientTransform="matrix(1 0 0 -1 0 768)">
					<stop  offset="0" style="stop-color:#FFFFFF"/>
					<stop  offset="1" style="stop-color:#AE94FF"/>
				</linearGradient>
				<polygon style="fill:url(#SVGID_00000065765281921818381640000017667986178444638628_);" points="1008.7,229.9 993.9,243.8 
					776.5,243.8 762,229.5 				"/>
			</g>
			
				<linearGradient id="SVGID_00000024705777355235008280000014002979328381461161_" gradientUnits="userSpaceOnUse" x1="50.336" y1="352.6242" x2="1315.7458" y2="352.6242" gradientTransform="matrix(1 0 0 -1 0 768)">
				<stop  offset="0" style="stop-color:#FFFFFF"/>
				<stop  offset="1" style="stop-color:#AE94FF"/>
			</linearGradient>
			<polyline style="fill:url(#SVGID_00000024705777355235008280000014002979328381461161_);" points="848.7,418.8 924.2,418.8 
				920.1,412 848.3,412 			"/>
			
				<linearGradient id="SVGID_00000127727753290507299090000011844003389617031302_" gradientUnits="userSpaceOnUse" x1="50.336" y1="324.6316" x2="1315.7458" y2="324.6316" gradientTransform="matrix(1 0 0 -1 0 768)">
				<stop  offset="0" style="stop-color:#FFFFFF"/>
				<stop  offset="1" style="stop-color:#AE94FF"/>
			</linearGradient>
			<polyline style="fill:url(#SVGID_00000127727753290507299090000011844003389617031302_);" points="829.8,446 942.6,446 
				942.6,440.7 827.8,440.7 826.1,443.4 			"/>
			
				<linearGradient id="SVGID_00000161633746667344429600000012735906773966491284_" gradientUnits="userSpaceOnUse" x1="50.336" y1="455.4689" x2="1315.7458" y2="455.4689" gradientTransform="matrix(1 0 0 -1 0 768)">
				<stop  offset="0" style="stop-color:#FFFFFF"/>
				<stop  offset="1" style="stop-color:#AE94FF"/>
			</linearGradient>
			<polygon style="fill:url(#SVGID_00000161633746667344429600000012735906773966491284_);" points="969.3,371 885.2,334.1 
				885.2,254.1 			"/>
			<line class="st18" x1="885.2" y1="332" x2="885.2" y2="252"/>
			<line class="st18" x1="885.4" y1="254.7" x2="885.4" y2="334.7"/>
			
				<linearGradient id="SVGID_00000140724857870394281570000000315982563911291838_" gradientUnits="userSpaceOnUse" x1="50.336" y1="455.4689" x2="1315.7458" y2="455.4689" gradientTransform="matrix(1 0 0 -1 0 768)">
				<stop  offset="0" style="stop-color:#FFFFFF"/>
				<stop  offset="1" style="stop-color:#AE94FF"/>
			</linearGradient>
			<polygon style="fill:url(#SVGID_00000140724857870394281570000000315982563911291838_);" points="801.1,371 885.2,334.1 
				885.2,254.1 			"/>
		</g>
		<g>
			
				<linearGradient id="SVGID_00000086680835155031407600000016626875027117526954_" gradientUnits="userSpaceOnUse" x1="50.3462" y1="415.9921" x2="1315.756" y2="415.9921" gradientTransform="matrix(1 0 0 -1 0 768)">
				<stop  offset="0" style="stop-color:#FFFFFF"/>
				<stop  offset="1" style="stop-color:#AE94FF"/>
			</linearGradient>
			<path style="fill:url(#SVGID_00000086680835155031407600000016626875027117526954_);" d="M50.3,333.9v142.9h33V363.4h117.1v-29.5
				H50.3L50.3,333.9z M50.3,227.2v29.5h168.4v-29.5H50.3z"/>
			
				<linearGradient id="SVGID_00000133498319292455914200000016170506690400672445_" gradientUnits="userSpaceOnUse" x1="50.336" y1="414.0439" x2="1315.7458" y2="414.0439" gradientTransform="matrix(1 0 0 -1 0 768)">
				<stop  offset="0" style="stop-color:#FFFFFF"/>
				<stop  offset="1" style="stop-color:#AE94FF"/>
			</linearGradient>
			<path style="fill:url(#SVGID_00000133498319292455914200000016170506690400672445_);" d="M425.4,227.2v144
				c0,31.4-5.1,52.5-15.6,63.6c-10.3,11.1-27.7,16.4-51.9,16.4c-14.2,0-26.2-2.7-36.1-8.4C312,437,305,429.2,301.2,419
				c-4.1-10.3-5.9-26.2-5.9-48V227h-33v144.2c0,26.5,3.1,47.4,9.6,62.5c6.4,15.2,17,26.9,31.8,35.1c14.8,8.2,34,12.1,57.4,12.1
				c24,0,43.5-4.5,58.2-13.9c14.8-9.2,25-21.3,30.8-36.1c5.7-14.8,8.6-34.7,8.6-59.7V227h-33.2V227.2z"/>
			
				<linearGradient id="SVGID_00000111907887514509121460000015665959334826348223_" gradientUnits="userSpaceOnUse" x1="50.336" y1="415.8896" x2="1315.7458" y2="415.8896" gradientTransform="matrix(1 0 0 -1 0 768)">
				<stop  offset="0" style="stop-color:#FFFFFF"/>
				<stop  offset="1" style="stop-color:#AE94FF"/>
			</linearGradient>
			<path style="fill:url(#SVGID_00000111907887514509121460000015665959334826348223_);" d="M688.3,366.7
				c-8.2-10.7-19.7-18.3-34.9-22.6c11.7-5.7,20.5-13.3,26.2-22.8c5.7-9.4,8.6-19.5,8.6-30.1c0-11.5-3.3-22.4-9.8-33
				c-6.6-10.7-15.6-18.3-27.1-23.4c-11.5-5.1-26.9-7.6-45.9-7.6h-93.7v29.5h82.9c18,0,30.6,1.2,37.9,3.5s13.1,6.6,17,12.9
				c3.9,6.4,5.9,13.5,5.9,21.9c0,8.8-2.1,16-6.4,21.7c-4.3,5.7-10.7,9.8-19.1,12.5c-6.4,1.8-16.8,2.9-31.6,2.9h-53.9h-33v29.5h90.6
				c16,0,28.1,1.4,36.5,4.1c8.4,2.9,15,7.6,19.9,14.6c4.7,6.8,7.2,15,7.2,24.2c0,8-1.6,15-4.9,20.9c-3.3,6.2-7.6,10.7-12.7,13.9
				s-11.5,5.5-19.1,6.8c-4.3,0.8-11.9,1.2-22.6,1.2h-95.2V477h95.2c16,0,29.3-1.4,40.2-4.1c10.9-2.7,20.1-7,27.3-12.3
				c7.2-5.5,13.3-13.1,18.3-23.2c4.9-10,7.4-20.9,7.4-32.6C700.4,389.8,696.3,377.3,688.3,366.7z"/>
			
				<linearGradient id="SVGID_00000167390882148252274120000007534881732544494223_" gradientUnits="userSpaceOnUse" x1="50.336" y1="416.1972" x2="1315.7458" y2="416.1972" gradientTransform="matrix(1 0 0 -1 0 768)">
				<stop  offset="0" style="stop-color:#FFFFFF"/>
				<stop  offset="1" style="stop-color:#AE94FF"/>
			</linearGradient>
			<path style="fill:url(#SVGID_00000167390882148252274120000007534881732544494223_);" d="M1272.4,408.9
				c-8.6-13.3-17.8-24.4-27.5-33.2c-4.5-4.1-11.3-8.2-19.9-12.5c24-3.3,41.6-11.1,53.1-23.2s17.2-27.1,17.2-44.7
				c0-13.7-3.5-26.2-10.5-37.7c-7-11.3-16.2-19.3-27.7-23.8s-28.5-6.8-50.7-6.8h-110.7v27.5h112c18.5,0,32,3.9,40.6,11.5
				c8.6,7.6,12.9,17.2,12.9,29.1c0,8-2.3,15.6-6.6,22.4c-4.5,6.8-10.9,11.9-19.5,15s-20.3,4.7-35.5,4.7h-104v139.5h33V365.9h38.3
				c8.6,0,14.6,0.4,18.5,1.2c5.1,1.2,10,3.5,15,6.6c4.9,3.1,10.5,8.8,16.8,16.6c6.2,8,14.2,19.5,23.8,34.5l33,51.9h41.4
				L1272.4,408.9z"/>
		</g>
		
			<linearGradient id="SVGID_00000013883103022212420040000016969870747320816017_" gradientUnits="userSpaceOnUse" x1="308.1245" y1="44.3977" x2="308.1245" y2="44.3977" gradientTransform="matrix(1 0 0 -1 0 768)">
			<stop  offset="0" style="stop-color:#FFFFFF"/>
			<stop  offset="1" style="stop-color:#AE94FF"/>
		</linearGradient>
		<path style="fill:url(#SVGID_00000013883103022212420040000016969870747320816017_);" d="M308.1,723.5v0.2V723.5z"/>
	</g>
</g>
<polygon class="st25" points="969.3,371 885.2,334.1 885.2,254.1 "/>
<line class="st18" x1="884.4" y1="333" x2="884.4" y2="253.1"/>
<line class="st18" x1="884.6" y1="255.7" x2="884.6" y2="335.7"/>
<polygon class="st26" points="801.1,371 885.2,334.1 885.2,254.1 "/>
</svg>
